<svg width="94" height="42" viewBox="0 0 94 42" fill="none" xmlns="http://www.w3.org/2000/svg">
<path d="M38.9446 0.610801C38.9446 0.610801 32.9965 -0.762699 30.563 0.610801C28.7509 1.63204 21.7374 4.74746 18.2777 6.27285V34.9063C20.2804 34.7641 24.265 34.5023 25.9674 34.5863C31.0408 34.8416 34.8295 36.3315 38.66 37.8375C42.2346 39.2433 45.8458 40.6653 50.5666 41.108C51.7573 41.2179 52.9114 41.3633 54.0316 41.5023C58.0788 42.0065 61.6612 42.4525 64.6274 41.108C68.4135 39.392 90.0387 26.3518 92.7412 22.9197C95.4463 19.4875 94.0938 10.2188 85.7121 11.9349C81.5787 12.7816 76.7821 15.2184 72.4373 17.4257C67.9723 19.6911 63.9799 21.7207 61.6534 21.5462C57.0578 21.2036 44.8901 18.4566 44.8901 18.4566L58.8595 18.6667C58.8595 18.6667 60.8335 18.7959 63.5438 16.398C66.2594 14 68.6825 7.13251 64.6274 7.13251C60.5724 7.13251 56.2458 5.4132 56.2458 5.4132L38.9446 0.610801ZM0 3.23176C0 2.37465 0.275098 1.55263 0.764775 0.946559C1.25445 0.340486 1.9186 0 2.6111 0H10.4444C11.1369 0 11.8011 0.340486 12.2907 0.946559C12.7804 1.55263 13.0555 2.37465 13.0555 3.23176V38.7682C13.0555 39.6254 12.7804 40.4474 12.2907 41.0534C11.8011 41.6595 11.1369 42 10.4444 42H2.6111C1.9186 42 1.25445 41.6595 0.764775 41.0534C0.275098 40.4474 0 39.6254 0 38.7682V3.23176Z" fill="#CACACA"/>
</svg>
