<svg width="83" height="83" viewBox="0 0 83 83" fill="none" xmlns="http://www.w3.org/2000/svg">
<path d="M3 18.4C3 14.3157 4.6225 10.3986 7.51056 7.51056C10.3986 4.6225 14.3157 3 18.4 3H64.6C68.6843 3 72.6014 4.6225 75.4894 7.51056C78.3775 10.3986 80 14.3157 80 18.4V64.6C80 68.6843 78.3775 72.6014 75.4894 75.4894C72.6014 78.3775 68.6843 80 64.6 80H18.4C14.3157 80 10.3986 78.3775 7.51056 75.4894C4.6225 72.6014 3 68.6843 3 64.6V18.4Z" stroke="#CACACA" stroke-width="5.33333" stroke-linecap="round" stroke-linejoin="round"/>
<path d="M28.0249 37.65C33.3407 37.65 37.6499 33.3407 37.6499 28.025C37.6499 22.7092 33.3407 18.4 28.0249 18.4C22.7092 18.4 18.3999 22.7092 18.3999 28.025C18.3999 33.3407 22.7092 37.65 28.0249 37.65Z" stroke="#CACACA" stroke-width="5.33333" stroke-linecap="round" stroke-linejoin="round"/>
<path d="M51.225 43.8908L18.3999 80H65.112C69.0605 80 72.8473 78.4314 75.6394 75.6394C78.4314 72.8473 80 69.0605 80 65.112V64.6C80 62.8059 79.3262 62.1167 78.1135 60.7885L62.5979 43.8677C61.8748 43.0789 60.9952 42.4495 60.0153 42.0196C59.0353 41.5897 57.9765 41.3688 56.9064 41.371C55.8363 41.3732 54.7784 41.5984 53.8002 42.0322C52.822 42.4661 51.945 43.0991 51.225 43.8908V43.8908Z" stroke="#CACACA" stroke-width="5.33333" stroke-linecap="round" stroke-linejoin="round"/>
</svg>
